<svg width="20" height="20" viewBox="0 0 20 20" fill="none" xmlns="http://www.w3.org/2000/svg">
<path d="M14.0419 0H5.95811C2.67279 0 0 2.67279 0 5.95811V14.0419C0 17.3272 2.67279 20 5.95811 20H14.0419C17.3272 20 20 17.3272 20 14.0419V5.95811C20 2.67279 17.3272 0 14.0419 0ZM17.988 14.0419C17.988 16.2213 16.2213 17.988 14.0419 17.988H5.95811C3.77875 17.988 2.012 16.2213 2.012 14.0419V5.95811C2.012 3.77871 3.77875 2.012 5.95811 2.012H14.0419C16.2213 2.012 17.988 3.77871 17.988 5.95811V14.0419Z" fill="white"/>
<path d="M10.0001 4.8273C7.14787 4.8273 4.82739 7.14777 4.82739 9.99998C4.82739 12.8522 7.14787 15.1727 10.0001 15.1727C12.8523 15.1727 15.1728 12.8522 15.1728 9.99998C15.1728 7.14774 12.8523 4.8273 10.0001 4.8273ZM10.0001 13.1607C8.25448 13.1607 6.83939 11.7456 6.83939 10C6.83939 8.25438 8.25451 6.8393 10.0001 6.8393C11.7457 6.8393 13.1608 8.25438 13.1608 10C13.1608 11.7456 11.7457 13.1607 10.0001 13.1607Z" fill="white"/>
<path d="M15.1826 6.10562C15.8672 6.10562 16.4221 5.55069 16.4221 4.86614C16.4221 4.18159 15.8672 3.62665 15.1826 3.62665C14.4981 3.62665 13.9431 4.18159 13.9431 4.86614C13.9431 5.55069 14.4981 6.10562 15.1826 6.10562Z" fill="white"/>
</svg>
