<svg width="61" height="61" viewBox="0 0 61 61" fill="none" xmlns="http://www.w3.org/2000/svg">
<g clip-path="url(#clip0)">
<path d="M26.4835 27.7385C26.4835 27.184 26.0344 26.7344 25.4794 26.7344H4.14205C3.58753 26.7344 3.13794 27.184 3.13794 27.7385V54.2219C3.13794 54.7764 3.58753 55.226 4.14205 55.226H25.4794C26.0344 55.226 26.4835 54.7764 26.4835 54.2219V27.7385ZM24.4753 53.2178H5.14616V28.7426H24.4753V53.2178Z" fill="#EEAE64"/>
<path d="M15.8212 56.1047H13.8086C13.2535 56.1047 12.8044 56.5543 12.8044 57.1088C12.8044 57.6634 13.2535 58.113 13.8086 58.113H15.8212C16.3757 58.113 16.8253 57.6634 16.8253 57.1088C16.8253 56.5543 16.3757 56.1047 15.8212 56.1047Z" fill="#EEAE64"/>
<path d="M58.0092 -0.000407779H44.3998C42.7206 -0.000407779 41.2943 1.3116 41.2943 2.99084V8.2835H10.4361C7.30315 8.29282 4.76886 10.8359 4.76984 13.9684V23.5962H4.15501C1.84085 23.5962 0.000313072 25.521 0.000313072 27.8377V56.8451C-0.00606067 57.9492 0.429805 59.0102 1.21132 59.7907C1.99235 60.5713 3.05334 61.0066 4.15747 60.9993H26.3033C27.2093 61.0071 28.0786 60.6443 28.7106 59.9952C29.3411 59.345 29.7471 58.5199 29.6216 57.6197V52.7154H53.0323C56.1731 52.71 58.7221 50.1718 58.7407 47.0305V43.4401C58.726 42.8763 58.2661 42.4262 57.7023 42.4232H56.2305V32.6332H58.0092C59.6885 32.6332 61 31.2079 61 29.5287V2.99084C61.0093 2.19461 60.6975 1.42878 60.1341 0.865441C59.5713 0.30259 58.805 -0.00972326 58.0092 -0.000407779ZM43.3026 6.52631H58.9918V24.4748H43.3026V6.52631ZM44.3998 2.00781H58.0092C58.2725 1.99801 58.5285 2.09852 58.7153 2.28482C58.9016 2.47162 59.0021 2.72756 58.9918 2.99084V4.51809H43.3026V2.99084C43.3026 2.41916 43.8281 2.00781 44.3998 2.00781ZM6.77806 13.9684C6.7756 11.9445 8.4117 10.3001 10.4361 10.2917H41.2943V13.1785H10.3743C9.8198 13.1785 9.41384 13.683 9.41384 14.2376V23.5962H6.77806V13.9684ZM27.2996 58.5978C27.0358 58.8606 26.6754 59.0028 26.3033 58.9911H4.1609C3.58775 58.9994 3.03618 58.7758 2.63071 58.3713C2.22573 57.9664 2.00118 57.4153 2.00853 56.8421V27.8406C2.00853 26.6276 2.94743 25.6044 4.15747 25.6044H25.4678C26.6808 25.6044 27.6143 26.6276 27.6143 27.8377V57.6349C27.6143 57.6452 27.6447 57.6418 27.6447 57.6521C27.6668 58.0017 27.5418 58.3444 27.2996 58.5978ZM25.4708 23.5962H11.4221V15.1868H41.2943V29.5287C41.3198 31.2334 42.6956 32.6087 44.3998 32.6332H49.5782V42.4232H37.3514C37.0705 42.4257 36.8028 42.5453 36.6131 42.7532L35.6653 43.7666C34.9691 44.5148 33.992 44.9379 32.9697 44.9335H29.6216V27.8347C29.6216 25.521 27.7874 23.5962 25.4708 23.5962ZM56.7325 47.0305C56.7149 49.0632 55.0646 50.7027 53.0323 50.7071H29.6216V46.9417H32.9697C34.5529 46.9442 36.0654 46.2857 37.1421 45.1247L37.7917 44.4315H56.7325V47.0305ZM54.2223 42.4232H51.5865V32.6332H54.2223V42.4232ZM58.0092 30.6249H44.3998C43.8046 30.6019 43.3266 30.1244 43.3026 29.5287V26.483H58.9918V29.5287C58.9918 30.1008 58.5809 30.6249 58.0092 30.6249Z" fill="#EEAE64"/>
<path d="M52.5904 27.3621H49.9546C49.4 27.3621 48.9504 27.8117 48.9504 28.3662C48.9504 28.9207 49.4 29.3703 49.9546 29.3703H52.5904C53.1454 29.3703 53.5945 28.9207 53.5945 28.3662C53.5945 27.8117 53.1454 27.3621 52.5904 27.3621Z" fill="#EEAE64"/>
</g>
<defs>
<clipPath id="clip0">
<rect width="61" height="61" fill="white"/>
</clipPath>
</defs>
</svg>
