<svg width="56" height="56" viewBox="0 0 56 56" fill="none" xmlns="http://www.w3.org/2000/svg">
<g clip-path="url(#clip0)">
<path d="M6.99914 42.6199C7.49395 42.1251 7.49395 41.3227 6.99914 40.8278C6.50433 40.3331 5.702 40.3331 5.20706 40.8278L0.371107 45.664C-0.123702 46.1588 -0.123702 46.9611 0.371107 47.4561C0.618448 47.7034 0.94283 47.8272 1.26709 47.8272C1.59134 47.8272 1.91572 47.7034 2.16306 47.4561L6.99914 42.6199Z" fill="#EEAE64"/>
<path d="M38.8898 8.69623C37.7661 9.82004 37.1472 11.3141 37.1472 12.9032C37.1472 14.4924 37.7661 15.9865 38.8898 17.1102C40.0495 18.2699 41.5731 18.8498 43.0967 18.8498C44.6203 18.8498 46.1437 18.2699 47.3035 17.1102C48.4273 15.9865 49.0461 14.4924 49.0461 12.9032C49.0461 11.3141 48.4272 9.82004 47.3035 8.69623C44.984 6.37665 41.2096 6.37665 38.8898 8.69623ZM45.5116 15.3182C44.18 16.6501 42.0135 16.6499 40.6817 15.3182C40.0366 14.6731 39.6815 13.8156 39.6815 12.9032C39.6815 11.991 40.0368 11.1333 40.6817 10.4882C41.3476 9.82232 42.222 9.48945 43.0967 9.48945C43.9712 9.48945 44.846 9.82245 45.5116 10.4882C46.1567 11.1333 46.512 11.9909 46.512 12.9032C46.512 13.8156 46.1567 14.6731 45.5116 15.3182Z" fill="#EEAE64"/>
<path d="M10.9953 44.824C10.5005 44.3293 9.69814 44.3293 9.20333 44.824L2.41969 51.6078C1.92488 52.1026 1.92488 52.9049 2.41969 53.3999C2.66716 53.6472 2.99141 53.771 3.31567 53.771C3.63993 53.771 3.96431 53.6472 4.21165 53.3999L10.9953 46.6161C11.4901 46.1212 11.4901 45.3188 10.9953 44.824Z" fill="#EEAE64"/>
<path d="M55.1932 1.68901C55.0743 1.26047 54.7394 0.925825 54.3111 0.806843C49.6931 -0.474847 44.691 -0.225478 39.8456 1.52758C36.091 2.88606 32.4394 5.16332 29.8271 7.77573L25.8869 11.716L11.6123 13.9457C11.347 13.9871 11.1018 14.1118 10.9118 14.3016L1.78213 23.4313C1.42658 23.787 1.31482 24.3191 1.49741 24.7875C1.68 25.256 2.12248 25.5721 2.62476 25.5933L11.6305 25.972L9.37343 28.2292C8.87862 28.724 8.87862 29.5263 9.37343 30.0212L10.6909 31.3385L6.75607 37.3699C6.42865 37.8718 6.49746 38.5344 6.92131 38.9582L17.0419 49.0787C17.4658 49.5024 18.1283 49.5716 18.6304 49.2439L24.6615 45.309L25.9789 46.6264C26.4737 47.1211 27.276 47.1211 27.771 46.6264L30.0281 44.3693L30.4068 53.3749C30.428 53.8773 30.7441 54.3196 31.2126 54.5022C31.3621 54.5605 31.518 54.5888 31.6725 54.5888C32.0025 54.5888 32.3266 54.4596 32.5688 54.2176L41.6985 45.0879C41.8884 44.898 42.013 44.6527 42.0545 44.3874L44.2844 30.113L48.2245 26.1728C50.8368 23.5605 53.1142 19.9089 54.4727 16.1544C56.2255 11.3091 56.4747 6.30689 55.1932 1.68901ZM18.1068 46.5595L9.44046 37.8932L12.5222 33.1697L16.7802 37.4277L16.2795 37.9284C15.7845 38.4232 15.7845 39.2256 16.2795 39.7205C16.7743 40.2152 17.5766 40.2152 18.0716 39.7205L18.5723 39.2198L22.8303 43.4778L18.1068 46.5595ZM46.4323 24.3809L42.2 28.6134C42.1995 28.6139 42.199 28.6144 42.1985 28.6149L37.7948 33.0186C37.2999 33.5134 37.2999 34.3158 37.7948 34.8107C38.2896 35.3054 39.0919 35.3054 39.5868 34.8107L41.2445 33.1531L39.6143 43.5883L32.8175 50.3852L32.4622 41.9353L36.0029 38.3946C36.4977 37.8998 36.4977 37.0975 36.0029 36.6025C35.5081 36.1078 34.7058 36.1078 34.2108 36.6025L30.2801 40.5333C30.278 40.5354 30.2759 40.5374 30.2738 40.5396L26.8749 43.9384L25.745 42.8085C25.732 42.7952 25.7191 42.7821 25.7057 42.7693L20.3642 37.4277L35.6893 22.1027C36.1841 21.6078 36.1842 20.8055 35.6893 20.3106C35.1946 19.816 34.3923 19.8159 33.8974 20.3106L18.5722 35.6358L13.2304 30.2941C13.2177 30.2809 13.2048 30.268 13.1915 30.2552L12.0616 29.1251L15.4605 25.7262C15.4627 25.7242 15.4647 25.7222 15.4667 25.72L19.3975 21.7893C19.8924 21.2945 19.8924 20.4921 19.3975 19.9972C18.9028 19.5025 18.1003 19.5025 17.6055 19.9972L14.0648 23.5379L5.61491 23.1825L12.4117 16.3857L22.8469 14.7557L21.1893 16.4132L22.9813 18.2052L27.3717 13.8148C27.3812 13.8056 27.3907 13.7962 27.4 13.7866L31.6189 9.56756C35.1451 6.04156 43.5177 0.817106 52.9322 3.06763C55.1828 12.4823 49.9583 20.855 46.4323 24.3809Z" fill="#EEAE64"/>
<path d="M13.38 49.0009L8.54396 53.8369C8.04915 54.3317 8.04915 55.1341 8.54396 55.629C8.79143 55.8764 9.11568 56.0002 9.43994 56.0002C9.76419 56.0002 10.0886 55.8764 10.3359 55.629L15.172 50.7929C15.6668 50.2981 15.6668 49.4958 15.172 49.0009C14.6773 48.5061 13.875 48.5061 13.38 49.0009Z" fill="#EEAE64"/>
</g>
<defs>
<clipPath id="clip0">
<rect width="56" height="56" fill="white"/>
</clipPath>
</defs>
</svg>
