<svg width="60" height="60" viewBox="0 0 60 60" fill="none" xmlns="http://www.w3.org/2000/svg">
<g clip-path="url(#clip0)">
<path d="M9.375 48.2813C10.0219 48.2813 10.5469 47.7563 10.5469 47.1094C10.5469 46.4625 10.0219 45.9375 9.375 45.9375C8.72812 45.9375 8.20312 46.4625 8.20312 47.1094C8.20312 47.7563 8.72812 48.2813 9.375 48.2813Z" fill="#EEAE64"/>
<path d="M50.625 48.2813C51.2719 48.2813 51.7969 47.7563 51.7969 47.1094C51.7969 46.4625 51.2719 45.9375 50.625 45.9375C49.9781 45.9375 49.4531 46.4625 49.4531 47.1094C49.4531 47.7563 49.9781 48.2813 50.625 48.2813Z" fill="#EEAE64"/>
<path d="M1.17195 34.2187L2.57351 34.2187C3.01156 37.5942 4.07 40.8109 5.73102 43.7935C6.04591 44.3589 6.75946 44.5622 7.32501 44.2473C7.89044 43.9324 8.09364 43.2187 7.77876 42.6533C6.31298 40.0209 5.3593 37.1891 4.93672 34.2187L5.85946 34.2187C6.50669 34.2187 7.03134 33.6941 7.03134 33.0469L7.03134 28.3594C7.03134 27.7121 6.50669 27.1875 5.85946 27.1875L1.17195 27.1875C0.524717 27.1875 6.7206e-05 27.7121 6.72626e-05 28.3594L6.76724e-05 33.0469C6.7729e-05 33.6941 0.524718 34.2187 1.17195 34.2187ZM2.34382 29.5312L4.68758 29.5312L4.68758 31.875L3.62375 31.875C3.6234 31.875 3.62293 31.875 3.62258 31.875C3.62211 31.875 3.62176 31.875 3.62129 31.875L2.34382 31.875L2.34382 29.5312Z" fill="#EEAE64"/>
<path d="M17.1116 25.7085C17.1123 25.7266 17.1128 25.7448 17.1143 25.763C17.1164 25.7878 17.1198 25.8123 17.1234 25.8367C17.1257 25.8517 17.1274 25.8667 17.1304 25.8817C17.1357 25.9104 17.1428 25.9385 17.1502 25.9665C17.153 25.9772 17.1552 25.9879 17.1584 25.9984C17.1688 26.0334 17.181 26.0678 17.1946 26.1014C17.1961 26.105 17.1971 26.1089 17.1987 26.1125C17.2148 26.1517 17.233 26.1898 17.2532 26.2266L28.9717 47.6714C29.1771 48.0473 29.5714 48.2813 30 48.2813C30.4286 48.2813 30.8229 48.0473 31.0283 47.6713L42.7468 26.2264C42.767 26.1896 42.7852 26.1516 42.8013 26.1124C42.8029 26.1088 42.8039 26.105 42.8054 26.1013C42.819 26.0677 42.8312 26.0333 42.8416 25.9983C42.8448 25.9877 42.847 25.9771 42.8498 25.9664C42.8573 25.9384 42.8643 25.9104 42.8696 25.8816C42.8725 25.8667 42.8742 25.8517 42.8766 25.8366C42.8802 25.8122 42.8836 25.7877 42.8857 25.7628C42.8872 25.7447 42.8878 25.7265 42.8884 25.7084C42.889 25.6936 42.8906 25.6791 42.8906 25.6641C42.8906 25.6563 42.8896 25.6489 42.8895 25.6412C42.8891 25.6228 42.8879 25.6045 42.8866 25.5861C42.8851 25.5628 42.8832 25.5396 42.8803 25.5166C42.8782 25.5005 42.8756 25.4844 42.8729 25.4682C42.8687 25.4429 42.8637 25.4178 42.8578 25.3931C42.8545 25.3792 42.8509 25.3652 42.847 25.3514C42.8396 25.3247 42.8312 25.2984 42.8221 25.2725C42.8195 25.2652 42.8178 25.2577 42.815 25.2503L38.5888 14.0508C38.9278 13.8827 39.2414 13.6595 39.5169 13.3841C40.1811 12.7199 40.5469 11.8371 40.5469 10.8984C40.5469 9.37078 39.5671 8.06812 38.2031 7.58437L38.2031 1.17187C38.2031 0.524643 37.6785 -7.17373e-06 37.0312 -7.11715e-06L22.9687 -5.88777e-06C22.3215 -5.83119e-06 21.7969 0.524645 21.7969 1.17187L21.7969 7.58238C21.3083 7.75476 20.8603 8.03543 20.483 8.41277C19.8189 9.07699 19.4531 9.95976 19.4531 10.8984C19.4531 12.2781 20.2522 13.474 21.4117 14.0493L17.1848 25.2503C17.182 25.2577 17.1804 25.2652 17.1778 25.2725C17.1687 25.2984 17.1602 25.3247 17.1529 25.3514C17.149 25.3652 17.1455 25.3792 17.1421 25.3931C17.1362 25.4178 17.1313 25.4429 17.127 25.4682C17.1243 25.4844 17.1216 25.5005 17.1196 25.5166C17.1166 25.5396 17.1148 25.5628 17.1132 25.5861C17.1121 25.6045 17.1108 25.6228 17.1104 25.6412C17.1103 25.6488 17.1093 25.6563 17.1093 25.6641C17.1094 25.6791 17.111 25.6936 17.1116 25.7085ZM30 26.8359C29.3538 26.8359 28.8281 26.3102 28.8281 25.6641C28.8281 25.0179 29.3538 24.4922 30 24.4922C30.6462 24.4922 31.1719 25.0179 31.1719 25.6641C31.1719 26.3102 30.6462 26.8359 30 26.8359ZM24.1406 2.34374L35.8594 2.34374L35.8594 7.38281L24.1406 7.38281L24.1406 2.34374ZM22.1403 10.0702C22.3618 9.84855 22.6561 9.72656 22.9687 9.72656L37.0312 9.72656C37.6774 9.72656 38.2031 10.2523 38.2031 10.8984C38.2031 11.2111 38.0811 11.5053 37.8596 11.7267C37.638 11.9483 37.3439 12.0703 37.0312 12.0703L22.9766 12.0703C22.974 12.0703 22.9714 12.07 22.9689 12.07C22.9676 12.07 22.9662 12.0701 22.9649 12.0701C22.3205 12.068 21.7968 11.5433 21.7968 10.8984C21.7969 10.5858 21.9189 10.2915 22.1403 10.0702ZM23.7791 14.4141L36.2209 14.4141L40.024 24.4922L37.0312 24.4922C36.384 24.4922 35.8594 25.0168 35.8594 25.6641C35.8594 26.3113 36.384 26.8359 37.0312 26.8359L39.743 26.8359L31.1719 42.521L31.1719 28.9781C32.5358 28.4944 33.5156 27.1918 33.5156 25.6641C33.5156 23.7255 31.9385 22.1484 30 22.1484C28.0615 22.1484 26.4844 23.7255 26.4844 25.6641C26.4844 27.1917 27.4642 28.4944 28.8281 28.9781L28.8281 42.521L20.257 26.8359L22.9688 26.8359C23.616 26.8359 24.1406 26.3113 24.1406 25.6641C24.1406 25.0168 23.616 24.4922 22.9687 24.4922L19.976 24.4922L23.7791 14.4141Z" fill="#EEAE64"/>
<path d="M52.6752 44.2473C53.2407 44.5623 53.9544 44.3591 54.2692 43.7936C55.9301 40.8109 56.9886 37.5942 57.4266 34.2188L58.8281 34.2188C59.4754 34.2188 60 33.6941 60 33.0469L60 28.3594C60 27.7122 59.4754 27.1875 58.8281 27.1875L54.1406 27.1875C53.4934 27.1875 52.9687 27.7122 52.9687 28.3594L52.9687 33.0469C52.9687 33.6941 53.4934 34.2188 54.1406 34.2188L55.0635 34.2188C54.6408 37.1891 53.6872 40.0209 52.2214 42.6533C51.9066 43.2188 52.1096 43.9324 52.6752 44.2473ZM55.3125 29.5313L57.6562 29.5313L57.6562 31.875L56.3788 31.875C56.3783 31.875 56.378 31.875 56.3775 31.875C56.3771 31.875 56.3767 31.875 56.3763 31.875L55.3125 31.875L55.3125 29.5313Z" fill="#EEAE64"/>
<path d="M3.51563 60C5.04329 60 6.34594 59.0202 6.82969 57.6563L26.4844 57.6563L26.4844 58.8281C26.4844 59.4754 27.009 60 27.6563 60L32.3438 60C32.991 60 33.5156 59.4754 33.5156 58.8281L33.5156 57.6563L53.1703 57.6563C53.6541 59.0202 54.9567 60 56.4844 60C58.4229 60 60 58.4229 60 56.4844C60 54.5459 58.4229 52.9687 56.4844 52.9687C54.9567 52.9687 53.6541 53.9486 53.1703 55.3125L41.389 55.3125C43.8885 54.2666 46.1807 52.9089 48.0674 51.3183C48.5623 50.9011 48.6252 50.1618 48.208 49.667C47.9762 49.392 47.6449 49.2504 47.3115 49.2504C47.0448 49.2504 46.7767 49.3409 46.5568 49.5263C43.1945 52.3608 38.3961 54.3852 33.5156 55.0642L33.5156 54.1406C33.5156 53.4934 32.991 52.9688 32.3438 52.9688L27.6563 52.9688C27.009 52.9688 26.4844 53.4934 26.4844 54.1406L26.4844 55.0642C21.6039 54.3852 16.8055 52.3608 13.4432 49.5264C13.2233 49.341 12.9552 49.2504 12.6885 49.2505C12.355 49.2505 12.0237 49.3921 11.792 49.6671C11.3747 50.1618 11.4377 50.9011 11.9326 51.3183C13.8193 52.9089 16.1115 54.2666 18.611 55.3125L6.82969 55.3125C6.34594 53.9486 5.0434 52.9688 3.51563 52.9688C1.57711 52.9688 3.33788e-06 54.5459 3.50735e-06 56.4844C3.67682e-06 58.4229 1.57711 60 3.51563 60ZM56.4844 55.3125C57.1305 55.3125 57.6562 55.8382 57.6562 56.4844C57.6562 57.1305 57.1305 57.6563 56.4844 57.6563C55.8382 57.6563 55.3125 57.1305 55.3125 56.4844C55.3125 55.8382 55.8382 55.3125 56.4844 55.3125ZM28.8281 56.4844L28.8281 56.3789L28.8281 55.3125L31.1719 55.3125L31.1719 56.3789L31.1719 56.4844L31.1719 57.6563L28.8281 57.6563L28.8281 56.4844ZM3.51563 55.3125C4.1618 55.3125 4.6875 55.8382 4.6875 56.4844C4.6875 57.1306 4.1618 57.6563 3.51563 57.6563C2.86946 57.6563 2.34375 57.1306 2.34375 56.4844C2.34375 55.8382 2.86946 55.3125 3.51563 55.3125Z" fill="#EEAE64"/>
</g>
<defs>
<clipPath id="clip0">
<rect width="60" height="60" fill="white" transform="translate(60 60) rotate(180)"/>
</clipPath>
</defs>
</svg>
